<svg width="29" height="29" viewBox="0 0 29 29" fill="none" xmlns="http://www.w3.org/2000/svg">
<path d="M1.0875 0.199951C1.06875 0.204639 1.05 0.21167 1.03125 0.218701C0.447656 0.300733 0 0.795264 0 1.39995C0 2.06323 0.536719 2.59995 1.2 2.59995C1.86328 2.59995 2.4 2.06323 2.4 1.39995H5.19375C5.94141 1.39995 6.33047 1.55464 6.61875 1.81245C6.90234 2.06792 7.13203 2.49917 7.33125 3.16245L12.1313 22.5312C12.3117 23.2179 12.4922 23.9257 12.9938 24.5C13.2023 24.739 13.4648 24.9335 13.7813 25.0812C13.4297 25.4984 13.2 26.0164 13.2 26.5999C13.2 27.9195 14.2805 29 15.6 29C16.9195 29 18 27.9195 18 26.5999C18 26.1593 17.8711 25.7562 17.6625 25.4H21.3375C21.1289 25.7562 21 26.1593 21 26.5999C21 27.9195 22.0805 29 23.4 29C24.7195 29 25.8 27.9195 25.8 26.5999C25.8 25.9835 25.5492 25.4328 25.1625 25.0062C25.2305 24.8234 25.2023 24.6171 25.0922 24.4578C24.9797 24.296 24.7969 24.1999 24.6 24.1999H15.4313C14.5055 24.1999 14.1281 24.0031 13.875 23.7125C13.6242 23.4242 13.4719 22.9203 13.2938 22.25V22.2312L12.8813 20.6H23.8875C24.1383 20.6 24.3656 20.4429 24.45 20.2062L28.7625 8.8062C28.8328 8.62339 28.807 8.41714 28.6945 8.25542C28.582 8.0937 28.3969 7.99761 28.2 7.99995H9.76875L8.49375 2.8812C8.49375 2.86948 8.49375 2.85542 8.49375 2.8437C8.26406 2.07026 7.96641 1.39995 7.425 0.912451C6.88359 0.424951 6.12188 0.199951 5.19375 0.199951H1.2C1.18125 0.199951 1.1625 0.199951 1.14375 0.199951C1.125 0.199951 1.10625 0.199951 1.0875 0.199951ZM10.0688 9.19995H27.3375L23.475 19.4H12.6L10.0688 9.19995ZM15.6 25.4C16.2703 25.4 16.8 25.9296 16.8 26.5999C16.8 27.2703 16.2703 27.7999 15.6 27.7999C14.9297 27.7999 14.4 27.2703 14.4 26.5999C14.4 25.9296 14.9297 25.4 15.6 25.4ZM23.4 25.4C24.0703 25.4 24.6 25.9296 24.6 26.5999C24.6 27.2703 24.0703 27.7999 23.4 27.7999C22.7297 27.7999 22.2 27.2703 22.2 26.5999C22.2 25.9296 22.7297 25.4 23.4 25.4Z" fill="#3F3E3D"/>
</svg>
