<svg width="30" height="30" viewBox="0 0 30 30" fill="none" xmlns="http://www.w3.org/2000/svg">
<mask id="mask0" mask-type="alpha" maskUnits="userSpaceOnUse" x="0" y="0" width="30" height="30">
<rect width="30" height="30" transform="matrix(-1 0 0 1 30 0)" fill="#C4C4C4"/>
</mask>
<g mask="url(#mask0)">
<path d="M15.3649 7.9599L14.919 8.45543L14.473 7.9599C12.386 5.641 9.40421 5.08919 7.0863 6.05029C4.80523 6.9961 3.0418 9.4672 3.51486 13.4884C3.80866 15.9858 5.66995 18.485 8.06211 20.6546C10.3281 22.7097 12.9773 24.3852 14.919 25.3857C16.8606 24.3852 19.5099 22.7097 21.7758 20.6546C24.168 18.485 26.0293 15.9858 26.3231 13.4884C26.7961 9.4672 25.0327 6.9961 22.7516 6.05029C20.4337 5.08919 17.452 5.641 15.3649 7.9599Z" stroke="#3F3E3D" stroke-width="1.2"/>
</g>
</svg>
