<svg width="72" height="38" viewBox="0 0 72 38" fill="none" xmlns="http://www.w3.org/2000/svg">
<path d="M0 3.16667C0 1.41777 1.41776 0 3.16666 0H8.76573C12.2635 0 15.0417 2.83552 15.0417 6.33332H9.50114H3.16666C1.41776 6.33332 0 4.91557 0 3.16667Z" fill="url(#paint0_linear)"/>
<path d="M7.91666 7.9178L13.5157 7.91666H50.6666C53.8255 7.91666 56.4442 10.2293 56.9221 13.2538C57.0083 13.7993 56.5522 14.25 56 14.25H37.7192H19.3673H14.25C10.7522 14.25 7.91666 11.4156 7.91666 7.9178Z" fill="url(#paint1_linear)"/>
<path d="M13.4583 15.8333H31.8101H45.125C48.2838 15.8333 50.9026 18.146 51.3804 21.1705C51.4666 21.716 51.0106 22.1667 50.4583 22.1667H41.679H23.3258H19.7917C16.2939 22.1667 13.4583 19.3311 13.4583 15.8333Z" fill="url(#paint2_linear)"/>
<path d="M17.4167 23.75H35.7699H41.1666C44.3255 23.75 46.9442 26.0626 47.4221 29.0872C47.5083 29.6327 47.0522 30.0833 46.5 30.0833H23.75C20.2522 30.0833 17.4167 27.2478 17.4167 23.75Z" fill="url(#paint3_linear)"/>
<path d="M21.375 35.2292C21.375 33.6989 22.6155 32.4583 24.1458 32.4583C25.6761 32.4583 26.9166 33.6989 26.9166 35.2292C26.9166 36.7595 25.6761 38 24.1458 38C22.6155 38 21.375 36.7595 21.375 35.2292Z" fill="url(#paint4_linear)"/>
<path d="M37.2083 35.2292C37.2083 33.6989 38.4488 32.4583 39.9791 32.4583C41.5094 32.4583 42.75 33.6989 42.75 35.2292C42.75 36.7595 41.5094 38 39.9791 38C38.4488 38 37.2083 36.7595 37.2083 35.2292Z" fill="url(#paint5_linear)"/>
<path d="M45.6371 14.2499H19.3672L13.4582 15.8332H39.7281L45.6371 14.2499Z" fill="#781A2C"/>
<path d="M45.6371 22.1666H23.3256L17.4165 23.7499H39.7281L45.6371 22.1666Z" fill="#781A2C"/>
<path d="M15.0415 6.33325H9.50098L7.9165 7.91773L13.5156 7.9166L15.0415 6.33325Z" fill="#781A2C"/>
<rect x="21.375" y="32.4583" width="5.54166" height="5.54166" rx="2.77083" fill="#EE1944"/>
<rect x="37.2085" y="32.4583" width="5.54166" height="5.54166" rx="2.77083" fill="#EE1944"/>
<g opacity="0.2">
<path d="M15.0417 6.33341H3.16666C1.41776 6.33341 0 4.91565 0 3.16675H14.1944C14.7332 4.0983 15.0417 5.17984 15.0417 6.33341Z" fill="black"/>
<path d="M14.25 14.2501H56C56.5523 14.2501 57.0083 13.7996 56.9221 13.2541C56.7989 12.474 56.5333 11.7413 56.1527 11.0834H8.76399C9.85905 12.9764 11.9058 14.2501 14.25 14.2501Z" fill="black"/>
<path d="M19.7917 22.1667H50.4583C51.0106 22.1667 51.4666 21.7163 51.3805 21.1707C51.2573 20.3907 50.9916 19.658 50.611 19.0001H14.3057C15.4007 20.8931 17.4475 22.1667 19.7917 22.1667Z" fill="black"/>
<path d="M23.75 30.0834H46.5C47.0523 30.0834 47.5083 29.6329 47.4221 29.0874C47.2989 28.3073 47.0333 27.5746 46.6527 26.9167H18.264C19.359 28.8098 21.4058 30.0834 23.75 30.0834Z" fill="black"/>
<path d="M26.9167 35.2292C26.9167 33.6989 25.6761 32.4584 24.1459 32.4584C22.6156 32.4584 21.375 33.6989 21.375 35.2292H26.9167Z" fill="black"/>
<path d="M42.75 35.2292C42.75 33.6989 41.5095 32.4584 39.9792 32.4584C38.4489 32.4584 37.2083 33.6989 37.2083 35.2292H42.75Z" fill="black"/>
</g>
<path fill-rule="evenodd" clip-rule="evenodd" d="M40.1775 20.2025C39.5743 19.0599 40.6015 17.7401 41.8572 18.0444L59.3639 22.2862C60.7228 22.6154 60.9319 24.461 59.681 25.0859L53.1934 28.3269C53.0581 28.3945 52.9607 28.5197 52.9283 28.6674L51.3791 35.7522C51.0804 37.1182 49.2401 37.3686 48.5873 36.1321L40.1775 20.2025ZM41.6217 19.0162C41.2032 18.9148 40.8608 19.3548 41.0618 19.7356L49.4716 35.6652C49.6892 36.0774 50.3026 35.9939 50.4022 35.5386L51.9514 28.4538C52.0483 28.0106 52.3406 27.6351 52.7464 27.4324L59.2341 24.1913C59.6511 23.983 59.5814 23.3678 59.1284 23.2581L41.6217 19.0162Z" fill="white"/>
<path d="M41.0618 19.7356C40.8608 19.3548 41.2032 18.9148 41.6217 19.0162L59.1284 23.2581C59.5814 23.3678 59.6511 23.983 59.2341 24.1913L52.7464 27.4324C52.3406 27.6351 52.0483 28.0106 51.9514 28.4538L50.4022 35.5386C50.3026 35.9939 49.6892 36.0774 49.4716 35.6652L41.0618 19.7356Z" fill="white"/>
<path fill-rule="evenodd" clip-rule="evenodd" d="M40.1775 20.2025C39.5743 19.0599 40.6015 17.7401 41.8572 18.0444L59.3639 22.2862C60.7228 22.6154 60.9319 24.461 59.681 25.0859L53.1934 28.3269C53.0581 28.3945 52.9607 28.5197 52.9283 28.6674L51.3791 35.7522C51.0804 37.1182 49.2401 37.3686 48.5873 36.1321L40.1775 20.2025ZM41.6217 19.0162C41.2032 18.9148 40.8608 19.3548 41.0618 19.7356L49.4716 35.6652C49.6892 36.0774 50.3026 35.9939 50.4022 35.5386L51.9514 28.4538C52.0483 28.0106 52.3406 27.6351 52.7464 27.4324L59.2341 24.1913C59.6511 23.983 59.5814 23.3678 59.1284 23.2581L41.6217 19.0162Z" fill="black"/>
<path d="M59.3741 28.3542C59.5412 28.1344 59.8549 28.0916 60.0747 28.2587L70.8272 36.4311C71.0471 36.5982 71.0899 36.9119 70.9228 37.1317C70.7557 37.3516 70.442 37.3943 70.2221 37.2272L59.4696 29.0548C59.2498 28.8877 59.207 28.5741 59.3741 28.3542Z" fill="black"/>
<path d="M56.4018 29.8391C56.5689 29.6192 56.8826 29.5765 57.1025 29.7436L65.9013 36.4311C66.1211 36.5982 66.1639 36.9119 65.9968 37.1317C65.8297 37.3516 65.516 37.3943 65.2962 37.2272L56.4973 30.5397C56.2775 30.3726 56.2347 30.0589 56.4018 29.8391Z" fill="black"/>
<path d="M55.2694 32.7224C55.4365 32.5025 55.7502 32.4598 55.9701 32.6269L60.9753 36.4311C61.1952 36.5982 61.2379 36.9119 61.0708 37.1317C60.9038 37.3516 60.5901 37.3943 60.3702 37.2272L55.365 33.423C55.1451 33.2559 55.1023 32.9422 55.2694 32.7224Z" fill="black"/>
<defs>
<linearGradient id="paint0_linear" x1="-1.1551e-07" y1="-0.791667" x2="44.3333" y2="33.25" gradientUnits="userSpaceOnUse">
<stop stop-color="#FF6382"/>
<stop offset="1" stop-color="#EE1944"/>
</linearGradient>
<linearGradient id="paint1_linear" x1="-1.1551e-07" y1="-0.791667" x2="44.3333" y2="33.25" gradientUnits="userSpaceOnUse">
<stop stop-color="#FF6382"/>
<stop offset="1" stop-color="#EE1944"/>
</linearGradient>
<linearGradient id="paint2_linear" x1="-1.1551e-07" y1="-0.791667" x2="44.3333" y2="33.25" gradientUnits="userSpaceOnUse">
<stop stop-color="#FF6382"/>
<stop offset="1" stop-color="#EE1944"/>
</linearGradient>
<linearGradient id="paint3_linear" x1="-1.1551e-07" y1="-0.791667" x2="44.3333" y2="33.25" gradientUnits="userSpaceOnUse">
<stop stop-color="#FF6382"/>
<stop offset="1" stop-color="#EE1944"/>
</linearGradient>
<linearGradient id="paint4_linear" x1="-1.1551e-07" y1="-0.791667" x2="44.3333" y2="33.25" gradientUnits="userSpaceOnUse">
<stop stop-color="#FF6382"/>
<stop offset="1" stop-color="#EE1944"/>
</linearGradient>
<linearGradient id="paint5_linear" x1="-1.1551e-07" y1="-0.791667" x2="44.3333" y2="33.25" gradientUnits="userSpaceOnUse">
<stop stop-color="#FF6382"/>
<stop offset="1" stop-color="#EE1944"/>
</linearGradient>
</defs>
</svg>
