<svg width="21" height="22" viewBox="0 0 21 22" fill="none" xmlns="http://www.w3.org/2000/svg">
<g opacity="0.8">
<mask id="mask0" mask-type="alpha" maskUnits="userSpaceOnUse" x="0" y="0" width="22" height="22">
<rect width="22" height="22" fill="#FC5D5D"/>
</mask>
<g mask="url(#mask0)">
<g opacity="0.5">
<path d="M11.2222 7.88885C11.8358 7.88885 12.3333 7.39139 12.3333 6.77773C12.3333 6.16408 11.8358 5.66662 11.2222 5.66662C10.6085 5.66662 10.111 6.16408 10.111 6.77773C10.111 7.39139 10.6085 7.88885 11.2222 7.88885Z" fill="#3F3E3D"/>
<path d="M13.6666 15.8888H12.3333V8.77774H8.77774V9.66662H10.1111V15.8888H8.77774V16.7777H13.6666V15.8888Z" fill="#3F3E3D"/>
<path d="M20.7777 10.9999C20.7777 5.59993 16.3999 1.22217 10.9999 1.22217C5.59993 1.22217 1.22217 5.59993 1.22217 10.9999C1.22217 16.3999 5.59993 20.7777 10.9999 20.7777C16.3999 20.7777 20.7777 16.3999 20.7777 10.9999ZM2.11105 10.9999C2.11105 6.09061 6.09061 2.11105 10.9999 2.11105C15.9093 2.11105 19.8888 6.09061 19.8888 10.9999C19.8888 15.9093 15.9093 19.8888 10.9999 19.8888C6.09061 19.8888 2.11105 15.9093 2.11105 10.9999Z" fill="#3F3E3D"/>
</g>
</g>
</g>
</svg>
