<svg width="78" height="80" viewBox="0 0 78 80" fill="none" xmlns="http://www.w3.org/2000/svg">
<path d="M39.0001 0.100098C26.7063 0.100098 16.7001 10.1063 16.7001 22.4001C16.7001 32.5876 22.0438 44.2688 27.3001 53.5501C32.5563 62.8313 37.8001 69.7001 37.8001 69.7001C38.0813 70.0813 38.5251 70.3126 39.0001 70.3126C39.4751 70.3126 39.9188 70.0813 40.2001 69.7001C40.2001 69.7001 45.4501 62.7376 50.7001 53.4001C55.9501 44.0626 61.3001 32.3751 61.3001 22.4001C61.3001 10.1063 51.2938 0.100098 39.0001 0.100098ZM39.0001 3.1001C49.6876 3.1001 58.3001 11.7126 58.3001 22.4001C58.3001 31.2876 53.2501 42.8001 48.1001 51.9501C43.8938 59.4313 40.3938 64.3376 39.0001 66.2501C37.6001 64.3626 34.1001 59.5188 29.9001 52.1001C24.7563 43.0126 19.7001 31.5251 19.7001 22.4001C19.7001 11.7126 28.3126 3.1001 39.0001 3.1001ZM39.0001 12.8501C32.8626 12.8501 27.8501 17.8626 27.8501 24.0001C27.8501 30.1376 32.8626 35.1501 39.0001 35.1501C45.1376 35.1501 50.1501 30.1376 50.1501 24.0001C50.1501 17.8626 45.1376 12.8501 39.0001 12.8501ZM39.0001 15.9501C43.4688 15.9501 47.0501 19.5313 47.0501 24.0001C47.0501 28.4688 43.4688 32.0501 39.0001 32.0501C34.5313 32.0501 30.9501 28.4688 30.9501 24.0001C30.9501 19.5313 34.5313 15.9501 39.0001 15.9501ZM23.2501 54.6501C16.8501 55.5876 11.4376 57.0688 7.4501 59.0001C5.45635 59.9626 3.80635 61.0376 2.6001 62.3001C1.39385 63.5626 0.600098 65.1313 0.600098 66.8001C0.600098 69.0876 2.0626 71.0438 4.1501 72.6001C6.2376 74.1563 9.05635 75.4126 12.5001 76.5001C19.3813 78.6751 28.7001 80.0001 39.0001 80.0001C49.3001 80.0001 58.6189 78.6751 65.5001 76.5001C68.9438 75.4126 71.7626 74.1563 73.8501 72.6001C75.9376 71.0438 77.4001 69.0876 77.4001 66.8001C77.4001 65.1376 76.6063 63.5626 75.4001 62.3001C74.1938 61.0376 72.5438 59.9626 70.5501 59.0001C66.5626 57.0688 61.1501 55.5876 54.7501 54.6501C53.8689 54.5126 53.0376 55.1189 52.9001 56.0001C52.7626 56.8813 53.3689 57.7126 54.2501 57.8501C60.4251 58.7563 65.6251 60.1938 69.1501 61.9001C70.9126 62.7563 72.2751 63.6876 73.1001 64.5501C73.9251 65.4126 74.2001 66.1313 74.2001 66.8001C74.2001 67.7188 73.5876 68.7751 71.9501 70.0001C70.3126 71.2251 67.7689 72.4314 64.5501 73.4501C58.1126 75.4813 49.0251 76.8001 39.0001 76.8001C28.9751 76.8001 19.8876 75.4813 13.4501 73.4501C10.2313 72.4314 7.6876 71.2251 6.0501 70.0001C4.4126 68.7751 3.8001 67.7188 3.8001 66.8001C3.8001 66.1313 4.0751 65.4126 4.9001 64.5501C5.7251 63.6876 7.0876 62.7563 8.8501 61.9001C12.3751 60.1938 17.5751 58.7563 23.7501 57.8501C24.6313 57.7126 25.2376 56.8813 25.1001 56.0001C24.9626 55.1189 24.1313 54.5126 23.2501 54.6501Z" fill="#EE1944"/>
</svg>
